<svg width="198" height="35" viewBox="0 0 198 35" fill="none" xmlns="http://www.w3.org/2000/svg">
<g clip-path="url(#clip0_19138_42539)">
<path d="M69.6156 5.12154H62.7475V7.63584H66.3981V10.6697C66.3981 11.1797 65.8103 11.3179 65.1035 11.3179H58.1331C57.4264 11.3179 56.8195 11.1606 56.8195 10.6292V3.45806C56.8195 2.8694 57.1336 2.49523 58.1331 2.49523H69.4014V0H58.1522C55.3084 0 53.6211 1.00095 53.6211 3.45806V10.6482C53.6211 12.8289 55.3084 13.8322 58.1522 13.8322H65.1035C68.1829 13.8322 69.6156 13.1244 69.6156 10.6697V5.12154Z" fill="#002854"/>
<path d="M7.12267 13.8635V2.52648H0V0.03125H17.3034V2.52648H10.3377V13.8635H7.12029H7.12267Z" fill="#002854"/>
<path d="M31.7605 0.03125H34.9589V10.5222C34.9589 12.5074 33.7429 13.8635 30.5254 13.8635H23.2695C20.052 13.8635 18.8359 12.5074 18.8359 10.5222V0.03125H22.0344V10.5436C22.0344 11.1132 22.4651 11.3492 23.2695 11.3492H30.5254C31.3298 11.3492 31.7605 11.1132 31.7605 10.5436V0.03125Z" fill="#002854"/>
<path d="M71.3975 13.8635V11.3492H82.9846C83.8865 11.3492 84.2411 11.1919 84.2411 10.5246V8.53935C84.2411 7.91018 83.8675 7.69569 82.9846 7.69569H75.4193C72.1828 7.69569 70.9453 6.33964 70.9453 4.33535V3.39159C70.9453 1.3873 72.1804 0.03125 75.4193 0.03125H86.6733V2.52648H75.4193C74.5768 2.52648 74.1437 2.74336 74.1437 3.37014V4.35203C74.1437 4.94069 74.5174 5.19808 75.4193 5.19808H82.9846C86.2211 5.19808 87.4586 6.55413 87.4586 8.55842V10.4841C87.4586 12.4884 86.2235 13.8635 82.9846 13.8635H71.3975Z" fill="#002854"/>
<path d="M95.3297 13.8635V2.52648H88.207V0.03125H105.51V2.52648H98.5448V13.8635H95.3273H95.3297Z" fill="#002854"/>
<path d="M107.066 13.8635V0.03125H122.142V2.52648H110.265V5.29579H121.533V7.81009H110.265V11.3468H122.142V13.8611H107.066V13.8635Z" fill="#002854"/>
<path d="M126.395 0.03125H123.668V13.8635H126.455V3.78483L137.687 13.8635H139.258V11.5112L126.395 0.03125Z" fill="#002854"/>
<path d="M139.259 9.49979V0.03125H136.453V6.98788L139.259 9.49979Z" fill="#002854"/>
<path d="M39.2155 0.03125H36.4883V13.8635H39.275V3.78483L50.5075 13.8635H52.0782V11.5112L39.2155 0.03125Z" fill="#002854"/>
<path d="M52.0792 9.49979V0.03125H49.2734V6.98788L52.0792 9.49979Z" fill="#002854"/>
<path d="M37.4091 17.9297H143.404V34.8625H29.582L37.4091 17.9297ZM117.403 28.5636C117.403 28.8877 117.451 29.188 117.543 29.455C117.641 29.7314 117.796 29.9745 118.01 30.1747C118.219 30.3725 118.493 30.5298 118.821 30.637C119.14 30.7419 119.53 30.7967 119.98 30.7967H124.959C125.409 30.7967 125.796 30.7419 126.118 30.637C126.446 30.5274 126.717 30.3725 126.929 30.1747C127.141 29.9745 127.298 29.7314 127.396 29.455C127.488 29.188 127.536 28.8877 127.536 28.5636V24.2262C127.536 23.902 127.488 23.6018 127.396 23.3348C127.298 23.0584 127.143 22.8153 126.929 22.6151C126.72 22.4173 126.446 22.26 126.118 22.1528C125.799 22.0479 125.409 21.9931 124.959 21.9931H119.98C119.53 21.9931 119.143 22.0479 118.821 22.1528C118.493 22.2624 118.222 22.4173 118.01 22.6151C117.798 22.8153 117.641 23.0584 117.543 23.3348C117.451 23.6018 117.403 23.902 117.403 24.2262V28.5636ZM114.15 30.7991H115.989V21.9931H114.15V30.7991ZM128.862 30.7991H130.52V24.4978L138.281 30.7991H139.259V29.3978L137.824 28.1752L130.377 21.9931H128.864V30.7991H128.862ZM107.106 23.6494V30.7991H108.945V23.6494H112.791V21.9931H103.153V23.6494H107.106ZM139.259 28.2204V21.9931H137.6V26.8072L139.259 28.2204ZM119.245 28.5779C119.245 28.8568 119.333 29.1451 119.978 29.1451H124.956C125.604 29.1451 125.689 28.8591 125.689 28.5779V24.2166C125.689 23.9378 125.601 23.6494 124.956 23.6494H119.978C119.331 23.6494 119.245 23.9354 119.245 24.2166V28.5779ZM48.0134 28.566C48.0134 28.8901 48.061 29.1904 48.1538 29.4573C48.2514 29.7338 48.4061 29.9769 48.6202 30.1771C48.832 30.3749 49.1033 30.5322 49.4318 30.6394C49.7506 30.7443 50.1409 30.7991 50.5907 30.7991H55.5716C56.0237 30.7991 56.3997 30.7443 56.6877 30.637C56.9875 30.525 57.2279 30.3653 57.4064 30.1604C57.5825 29.9554 57.7015 29.71 57.7633 29.4311C57.8205 29.1713 57.849 28.8806 57.849 28.5636V21.9931H56.0071V28.5755C56.0071 28.8544 55.919 29.1428 55.2741 29.1428H50.5931C49.9458 29.1428 49.8601 28.8568 49.8601 28.5755V21.9931H48.0182V28.5636L48.0134 28.566ZM59.1722 23.6518H63.125V30.8015H64.9646V23.6518H68.8103V21.9955H59.1722V23.6518ZM70.0049 28.566C70.0049 28.8901 70.0525 29.1904 70.1453 29.4573C70.2429 29.7338 70.3976 29.9769 70.6118 30.1771C70.8236 30.3749 71.0949 30.5322 71.4233 30.6394C71.7422 30.7443 72.1324 30.7991 72.5822 30.7991H77.5631C78.0129 30.7991 78.4008 30.7443 78.722 30.6394C79.0505 30.5322 79.3218 30.3749 79.5336 30.1771C79.7453 29.9769 79.9024 29.7338 80 29.4573C80.0928 29.1904 80.1404 28.8901 80.1404 28.566V24.2285C80.1404 23.9044 80.0928 23.6065 80 23.3372C79.9024 23.0608 79.7477 22.8177 79.5336 22.6175C79.3241 22.4197 79.0505 22.2624 78.722 22.1551C78.4032 22.0503 78.0129 21.9955 77.5631 21.9955H72.5822C72.1324 21.9955 71.7445 22.0503 71.4233 22.1551C71.0949 22.2648 70.8236 22.4197 70.6118 22.6175C70.3976 22.8177 70.2429 23.0608 70.1453 23.3372C70.0525 23.6041 70.0049 23.9044 70.0049 24.2285V28.566ZM71.8469 28.5779C71.8469 28.8568 71.9349 29.1451 72.5798 29.1451H77.5607C78.208 29.1451 78.2937 28.8591 78.2937 28.5779V24.2166C78.2937 23.9378 78.2056 23.6494 77.5607 23.6494H72.5798C71.9325 23.6494 71.8469 23.9354 71.8469 24.2166V28.5779ZM81.6706 30.7991H83.4054V25.4249L86.9299 30.7991H88.3221L91.8346 25.4154V30.7991H93.5695V21.9931H92.0274L87.6843 28.6709L83.3816 22.086L83.3198 21.9907H81.6706V30.7967V30.7991ZM94.1715 30.7848H96.242L99.4523 24.0379L101.223 27.0622H99.2643L98.5551 28.6709H102.146L103.362 30.7848H105.552L100.323 21.9788H98.2362L94.1644 30.7848H94.1715ZM40.2077 21.9645L36.1359 30.7705H38.2063L41.4167 24.0236L43.1872 27.0479H41.2287L40.5195 28.6566H44.1106L45.3266 30.7705H47.516L42.2877 21.9645H40.2006H40.2077Z" fill="#002854"/>
<path d="M149.522 24.1088V18.084H154.162V19.1684H150.767V20.5888H153.027V21.6302H150.767V24.1088H149.52H149.522Z" fill="#002854"/>
<path d="M157.757 24.2048C157.309 24.2048 156.893 24.1262 156.507 23.9689C156.12 23.8116 155.782 23.5899 155.494 23.3063C155.206 23.0227 154.977 22.6915 154.815 22.3173C154.651 21.9408 154.57 21.5356 154.57 21.0995C154.57 20.6633 154.651 20.2582 154.815 19.8817C154.98 19.5051 155.206 19.1762 155.494 18.8926C155.782 18.609 156.122 18.3874 156.507 18.2301C156.893 18.0728 157.312 17.9941 157.757 17.9941C158.202 17.9941 158.611 18.0728 158.999 18.2301C159.387 18.3874 159.725 18.609 160.013 18.8926C160.301 19.1762 160.527 19.5075 160.686 19.8817C160.846 20.2582 160.927 20.6633 160.927 21.0995C160.927 21.5356 160.846 21.9408 160.686 22.3173C160.527 22.6939 160.301 23.0227 160.013 23.3063C159.723 23.5899 159.385 23.8116 158.999 23.9689C158.614 24.1262 158.197 24.2048 157.757 24.2048ZM157.757 23.0609C158.026 23.0609 158.276 23.0108 158.504 22.9107C158.733 22.8106 158.935 22.6724 159.106 22.4984C159.278 22.3245 159.413 22.1147 159.511 21.874C159.608 21.6333 159.656 21.3759 159.656 21.0995C159.656 20.823 159.606 20.5513 159.511 20.3154C159.413 20.0795 159.278 19.8745 159.106 19.7005C158.935 19.5266 158.733 19.3883 158.504 19.2882C158.276 19.1881 158.028 19.1381 157.764 19.1381C157.5 19.1381 157.236 19.1881 157.002 19.2882C156.769 19.3883 156.569 19.5266 156.396 19.7005C156.224 19.8745 156.089 20.0818 155.991 20.3154C155.893 20.5513 155.846 20.8063 155.846 21.0804C155.846 21.3545 155.893 21.6309 155.991 21.8716C156.089 22.1123 156.224 22.3197 156.396 22.496C156.567 22.67 156.769 22.8083 157.002 22.9083C157.233 23.0084 157.486 23.0585 157.754 23.0585L157.757 23.0609Z" fill="#002854"/>
<path d="M161.952 24.1088V18.084H164.883C165.295 18.084 165.659 18.1626 165.971 18.3199C166.283 18.4772 166.526 18.6965 166.702 18.9777C166.875 19.2589 166.963 19.583 166.963 19.95C166.963 20.3171 166.856 20.665 166.645 20.9605C166.433 21.2561 166.15 21.4753 165.793 21.6183L167.125 24.1064H165.733L164.555 21.7994H163.196V24.1064H161.949L161.952 24.1088ZM163.199 20.777H164.781C165.062 20.777 165.286 20.7031 165.457 20.553C165.626 20.4029 165.712 20.2098 165.712 19.9667C165.712 19.7236 165.626 19.5211 165.457 19.3733C165.288 19.2232 165.062 19.1493 164.781 19.1493H163.199V20.777Z" fill="#002854"/>
<path d="M167.969 24.1088V18.084H169.575L171.217 21.3371L172.869 18.084H174.458V24.1088H173.29V19.676L171.2 23.6774L169.121 19.6569V24.1064H167.969V24.1088Z" fill="#002854"/>
<path d="M175.723 24.1088V18.084H180.347V19.1684H176.97V20.5459H179.195V21.5873H176.97V23.0244H180.382V24.1088H175.723Z" fill="#002854"/>
<path d="M181.436 24.1088V18.084H184.368C184.78 18.084 185.144 18.1626 185.455 18.3199C185.767 18.4772 186.01 18.6965 186.186 18.9777C186.36 19.2589 186.448 19.583 186.448 19.95C186.448 20.3171 186.341 20.665 186.129 20.9605C185.917 21.2561 185.634 21.4753 185.277 21.6183L186.61 24.1064H185.217L184.039 21.7994H182.681V24.1064H181.434L181.436 24.1088ZM182.683 20.777H184.266C184.546 20.777 184.77 20.7031 184.941 20.553C185.11 20.4029 185.196 20.2098 185.196 19.9667C185.196 19.7236 185.11 19.5211 184.941 19.3733C184.772 19.2232 184.546 19.1493 184.266 19.1493H182.683V20.777Z" fill="#002854"/>
<path d="M187.453 24.1088V18.084H188.7V23.0077H191.991V24.1088H187.453Z" fill="#002854"/>
<path d="M193.626 24.1088V21.8018L191.168 18.084H192.603L194.288 20.7008L195.973 18.084H197.339L194.871 21.8113V24.1088H193.624H193.626Z" fill="#002854"/>
<path d="M149.672 34.8701V26.5312H151.718V30.1752L155.083 26.5312H157.558L153.706 30.4493L157.773 34.8678H155.06L151.718 31.0451V34.8678H149.672V34.8701Z" fill="#002854"/>
<path d="M162.491 35.001C161.865 35.001 161.282 34.8914 160.742 34.6745C160.201 34.4553 159.73 34.1502 159.326 33.757C158.921 33.3637 158.607 32.9085 158.381 32.3866C158.155 31.8671 158.043 31.3046 158.043 30.7017C158.043 30.0987 158.155 29.5363 158.381 29.0167C158.607 28.4972 158.921 28.0396 159.326 27.6464C159.73 27.2532 160.201 26.9481 160.742 26.7288C161.282 26.5096 161.863 26.4023 162.491 26.4023C163.119 26.4023 163.7 26.512 164.24 26.7288C164.78 26.9481 165.251 27.2532 165.656 27.6464C166.06 28.0396 166.375 28.4972 166.601 29.0167C166.827 29.5363 166.939 30.0987 166.939 30.7017C166.939 31.3046 166.827 31.8671 166.601 32.3866C166.375 32.9062 166.06 33.3637 165.656 33.757C165.251 34.1502 164.78 34.4553 164.24 34.6745C163.7 34.8938 163.117 35.001 162.491 35.001ZM162.491 33.1183C162.824 33.1183 163.133 33.0563 163.419 32.9348C163.704 32.8108 163.952 32.644 164.161 32.4295C164.371 32.215 164.537 31.96 164.654 31.6621C164.773 31.3642 164.832 31.0449 164.832 30.7041C164.832 30.3633 164.773 30.032 164.654 29.7389C164.535 29.4457 164.371 29.1907 164.161 28.9762C163.952 28.7617 163.704 28.5925 163.419 28.471C163.133 28.3471 162.824 28.2875 162.491 28.2875C162.158 28.2875 161.848 28.3494 161.563 28.471C161.277 28.5949 161.03 28.7617 160.82 28.9762C160.611 29.1907 160.444 29.4457 160.328 29.7389C160.209 30.032 160.149 30.3537 160.149 30.7041C160.149 31.0544 160.209 31.3642 160.328 31.6621C160.447 31.96 160.611 32.215 160.82 32.4295C161.03 32.644 161.277 32.8132 161.563 32.9348C161.848 33.0587 162.158 33.1183 162.491 33.1183Z" fill="#002854"/>
<path d="M168.023 34.8701V26.5312H174.637V28.3067H170.07V29.8678H173.114V31.5837H170.07V34.8701H168.023Z" fill="#002854"/>
<path d="M173.459 34.8701L176.872 26.5312H179.216L182.581 34.8701H180.368L179.606 32.8563H176.36L175.587 34.8701H173.457H173.459ZM176.979 31.2262H179.002L178.002 28.557L176.979 31.2262Z" fill="#002854"/>
<path d="M182.797 34.8697L185.95 30.5704L182.94 26.5332H185.379L187.164 29.0475L188.949 26.5332H191.293L188.33 30.5704L191.543 34.8697H189.103L187.116 32.0813L185.141 34.8697H182.797Z" fill="#002854"/>
</g>
<defs>
<clipPath id="clip0_19138_42539">
<rect width="197.338" height="35" fill="white"/>
</clipPath>
</defs>
</svg>
