<svg width="290" height="52" viewBox="0 0 290 52" fill="none" xmlns="http://www.w3.org/2000/svg">
<path d="M102.109 7.60915H92.0348V11.3447H97.3894V15.8521C97.3894 16.6098 96.5272 16.8152 95.4905 16.8152H85.2666C84.2299 16.8152 83.3398 16.5815 83.3398 15.7919V5.13768C83.3398 4.26311 83.8005 3.7072 85.2666 3.7072H101.794V0H85.2945C81.1233 0 78.6484 1.48713 78.6484 5.13768V15.8202C78.6484 19.0601 81.1233 20.5507 85.2945 20.5507H95.4905C100.007 20.5507 102.109 19.4991 102.109 15.8521V7.60915Z" fill="white"/>
<path d="M10.4473 20.5976V3.75408H0V0.046875H25.38V3.75408H15.1631V20.5976H10.4438H10.4473Z" fill="white"/>
<path d="M46.5862 0.046875H51.2776V15.6334C51.2776 18.5829 49.4939 20.5976 44.7746 20.5976H34.1319C29.4126 20.5976 27.6289 18.5829 27.6289 15.6334V0.046875H32.3202V15.6653C32.3202 16.5115 32.952 16.8621 34.1319 16.8621H44.7746C45.9544 16.8621 46.5862 16.5115 46.5862 15.6653V0.046875Z" fill="white"/>
<path d="M104.722 20.5976V16.8621H121.717C123.04 16.8621 123.56 16.6284 123.56 15.637V12.6875C123.56 11.7527 123.012 11.434 121.717 11.434H110.621C105.874 11.434 104.059 9.41934 104.059 6.44154V5.03939C104.059 2.06158 105.87 0.046875 110.621 0.046875H127.128V3.75408H110.621C109.385 3.75408 108.75 4.07629 108.75 5.00752V6.46632C108.75 7.3409 109.298 7.7233 110.621 7.7233H121.717C126.465 7.7233 128.28 9.73801 128.28 12.7158V15.5768C128.28 18.5546 126.468 20.5976 121.717 20.5976H104.722Z" fill="white"/>
<path d="M139.83 20.5976V3.75408H129.383V0.046875H154.763V3.75408H144.546V20.5976H139.827H139.83Z" fill="white"/>
<path d="M157.043 20.5976V0.046875H179.156V3.75408H161.734V7.86847H178.262V11.604H161.734V16.8585H179.156V20.5941H157.043V20.5976Z" fill="white"/>
<path d="M185.395 0.046875H181.395V20.5976H185.482V5.62362L201.958 20.5976H204.261V17.1028L185.395 0.046875Z" fill="white"/>
<path d="M204.26 14.1144V0.046875H200.145V10.3824L204.26 14.1144Z" fill="white"/>
<path d="M57.5197 0.046875H53.5195V20.5976H57.607V5.62362L74.0825 20.5976H76.3863V17.1028L57.5197 0.046875Z" fill="white"/>
<path d="M76.3849 14.1144V0.046875H72.2695V10.3824L76.3849 14.1144Z" fill="white"/>
<path d="M54.8711 26.6367H210.341V51.794H43.3906L54.8711 26.6367ZM172.203 42.4357C172.203 42.9173 172.273 43.3634 172.409 43.76C172.552 44.1707 172.779 44.5319 173.094 44.8293C173.401 45.1232 173.802 45.3569 174.284 45.5162C174.752 45.672 175.324 45.7534 175.984 45.7534H183.286C183.946 45.7534 184.515 45.672 184.986 45.5162C185.468 45.3533 185.866 45.1232 186.176 44.8293C186.487 44.5319 186.717 44.1707 186.86 43.76C186.996 43.3634 187.066 42.9173 187.066 42.4357V35.9915C187.066 35.5099 186.996 35.0638 186.86 34.6672C186.717 34.2565 186.49 33.8953 186.176 33.5979C185.869 33.304 185.468 33.0703 184.986 32.911C184.518 32.7552 183.946 32.6738 183.286 32.6738H175.984C175.324 32.6738 174.755 32.7552 174.284 32.911C173.802 33.0739 173.404 33.304 173.094 33.5979C172.783 33.8953 172.552 34.2565 172.409 34.6672C172.273 35.0638 172.203 35.5099 172.203 35.9915V42.4357ZM167.432 45.757H170.13V32.6738H167.432V45.757ZM189.011 45.757H191.443V36.3951L202.826 45.757H204.261V43.675L202.156 41.8586L191.234 32.6738H189.014V45.757H189.011ZM157.1 35.1346V45.757H159.798V35.1346H165.439V32.6738H151.302V35.1346H157.1ZM204.261 41.9258V32.6738H201.828V39.8262L204.261 41.9258ZM174.905 42.457C174.905 42.8712 175.034 43.2997 175.98 43.2997H183.282C184.232 43.2997 184.358 42.8748 184.358 42.457V35.9773C184.358 35.563 184.228 35.1346 183.282 35.1346H175.98C175.031 35.1346 174.905 35.5595 174.905 35.9773V42.457ZM70.4251 42.4393C70.4251 42.9208 70.495 43.3669 70.6311 43.7635C70.7742 44.1742 71.0011 44.5354 71.3152 44.8328C71.6259 45.1267 72.0238 45.3604 72.5055 45.5197C72.9733 45.6755 73.5457 45.757 74.2054 45.757H81.5112C82.1744 45.757 82.7259 45.6755 83.1483 45.5162C83.5881 45.3498 83.9407 45.1125 84.2025 44.808C84.4608 44.5035 84.6353 44.1388 84.726 43.7246C84.8098 43.3386 84.8517 42.9066 84.8517 42.4357V32.6738H82.15V42.4534C82.15 42.8677 82.0209 43.2961 81.0749 43.2961H74.2089C73.2595 43.2961 73.1338 42.8712 73.1338 42.4534V32.6738H70.4321V42.4357L70.4251 42.4393ZM86.7925 35.1381H92.5903V45.7605H95.2885V35.1381H100.929V32.6773H86.7925V35.1381ZM102.682 42.4393C102.682 42.9208 102.751 43.3669 102.888 43.7635C103.031 44.1742 103.258 44.5354 103.572 44.8328C103.882 45.1267 104.28 45.3604 104.762 45.5197C105.23 45.6755 105.802 45.757 106.462 45.757H113.768C114.427 45.757 114.996 45.6755 115.468 45.5197C115.949 45.3604 116.347 45.1267 116.658 44.8328C116.969 44.5354 117.199 44.1742 117.342 43.7635C117.478 43.3669 117.548 42.9208 117.548 42.4393V35.995C117.548 35.5135 117.478 35.0709 117.342 34.6708C117.199 34.26 116.972 33.8989 116.658 33.6014C116.351 33.3076 115.949 33.0739 115.468 32.9145C115 32.7587 114.427 32.6773 113.768 32.6773H106.462C105.802 32.6773 105.233 32.7587 104.762 32.9145C104.28 33.0774 103.882 33.3076 103.572 33.6014C103.258 33.8989 103.031 34.26 102.888 34.6708C102.751 35.0673 102.682 35.5135 102.682 35.995V42.4393ZM105.383 42.457C105.383 42.8712 105.512 43.2997 106.458 43.2997H113.764C114.714 43.2997 114.839 42.8748 114.839 42.457V35.9773C114.839 35.563 114.71 35.1346 113.764 35.1346H106.458C105.509 35.1346 105.383 35.5595 105.383 35.9773V42.457ZM119.792 45.757H122.337V37.7725L127.507 45.757H129.549L134.701 37.7583V45.757H137.245V32.6738H134.983L128.613 42.595L122.302 32.8119L122.211 32.6702H119.792V45.7534V45.757ZM138.128 45.7357H141.165L145.874 35.7118L148.471 40.205H145.598L144.558 42.595H149.825L151.609 45.7357H154.82L147.152 32.6525H144.09L138.118 45.7357H138.128ZM58.9761 32.6313L53.0037 45.7145H56.0405L60.7493 35.6905L63.3463 40.1838H60.4735L59.4333 42.5738H64.7006L66.4843 45.7145H69.6956L62.0268 32.6313H58.9656H58.9761Z" fill="white"/>
<path d="M219.312 35.8183V26.8672H226.119V28.4782H221.138V30.5886H224.454V32.1359H221.138V35.8183H219.309H219.312Z" fill="white"/>
<path d="M231.389 35.9597C230.732 35.9597 230.122 35.8429 229.556 35.6092C228.987 35.3755 228.492 35.0462 228.069 34.6248C227.647 34.2035 227.312 33.7113 227.074 33.1554C226.834 32.596 226.715 31.994 226.715 31.3461C226.715 30.6981 226.834 30.0962 227.074 29.5367C227.315 28.9773 227.647 28.4887 228.069 28.0673C228.492 27.6459 228.991 27.3167 229.556 27.083C230.122 26.8493 230.736 26.7324 231.389 26.7324C232.041 26.7324 232.642 26.8493 233.211 27.083C233.78 27.3167 234.275 27.6459 234.698 28.0673C235.12 28.4887 235.452 28.9808 235.686 29.5367C235.919 30.0962 236.038 30.6981 236.038 31.3461C236.038 31.994 235.919 32.596 235.686 33.1554C235.452 33.7149 235.12 34.2035 234.698 34.6248C234.272 35.0462 233.776 35.3755 233.211 35.6092C232.645 35.8429 232.034 35.9597 231.389 35.9597ZM231.389 34.2601C231.783 34.2601 232.15 34.1858 232.485 34.0371C232.82 33.8884 233.117 33.683 233.368 33.4245C233.619 33.166 233.818 32.8544 233.961 32.4968C234.104 32.1392 234.174 31.7568 234.174 31.3461C234.174 30.9353 234.101 30.5317 233.961 30.1811C233.818 29.8306 233.619 29.5261 233.368 29.2676C233.117 29.0091 232.82 28.8038 232.485 28.6551C232.15 28.5064 231.787 28.432 231.399 28.432C231.012 28.432 230.624 28.5064 230.282 28.6551C229.94 28.8038 229.647 29.0091 229.392 29.2676C229.141 29.5261 228.942 29.8342 228.799 30.1811C228.656 30.5317 228.586 30.9105 228.586 31.3177C228.586 31.7249 228.656 32.1357 228.799 32.4933C228.942 32.8509 229.141 33.1589 229.392 33.421C229.643 33.6794 229.94 33.8848 230.282 34.0335C230.621 34.1822 230.991 34.2566 231.385 34.2566L231.389 34.2601Z" fill="white"/>
<path d="M237.543 35.8183V26.8672H241.843C242.447 26.8672 242.981 26.984 243.438 27.2177C243.895 27.4514 244.251 27.7772 244.51 28.195C244.765 28.6128 244.894 29.0943 244.894 29.6396C244.894 30.1849 244.737 30.7019 244.426 31.1409C244.115 31.58 243.7 31.9057 243.176 32.1182L245.131 35.8148H243.089L241.361 32.3873H239.368V35.8148H237.539L237.543 35.8183ZM239.372 30.8683H241.693C242.105 30.8683 242.433 30.7585 242.684 30.5354C242.932 30.3124 243.058 30.0256 243.058 29.6644C243.058 29.3032 242.932 29.0023 242.684 28.7828C242.436 28.5597 242.105 28.4499 241.693 28.4499H239.372V30.8683Z" fill="white"/>
<path d="M246.367 35.8183V26.8672H248.723L251.132 31.7004L253.554 26.8672H255.886V35.8183H254.172V29.2324L251.107 35.1774L248.057 29.2041V35.8148H246.367V35.8183Z" fill="white"/>
<path d="M257.738 35.8183V26.8672H264.52V28.4782H259.567V30.5248H262.831V32.0721H259.567V34.2072H264.573V35.8183H257.738Z" fill="white"/>
<path d="M266.125 35.8183V26.8672H270.425C271.029 26.8672 271.563 26.984 272.02 27.2177C272.477 27.4514 272.833 27.7772 273.092 28.195C273.347 28.6128 273.476 29.0943 273.476 29.6396C273.476 30.1849 273.319 30.7019 273.008 31.1409C272.697 31.58 272.282 31.9057 271.758 32.1182L273.713 35.8148H271.671L269.943 32.3873H267.95V35.8148H266.121L266.125 35.8183ZM267.954 30.8683H270.275C270.687 30.8683 271.015 30.7585 271.266 30.5354C271.514 30.3124 271.64 30.0256 271.64 29.6644C271.64 29.3032 271.514 29.0023 271.266 28.7828C271.018 28.5597 270.687 28.4499 270.275 28.4499H267.954V30.8683Z" fill="white"/>
<path d="M274.949 35.8183V26.8672H276.778V34.1825H281.606V35.8183H274.949Z" fill="white"/>
<path d="M284.004 35.8183V32.3908L280.398 26.8672H282.503L284.975 30.755L287.446 26.8672H289.449L285.83 32.405V35.8183H284.001H284.004Z" fill="white"/>
<path d="M219.531 51.8052V39.416H222.533V44.8299L227.469 39.416H231.099L225.448 45.2371L231.413 51.8017H227.434L222.533 46.1223V51.8017H219.531V51.8052Z" fill="white"/>
<path d="M238.336 51.9998C237.418 51.9998 236.563 51.8369 235.771 51.5147C234.978 51.1889 234.287 50.7357 233.694 50.1515C233.101 49.5672 232.64 48.891 232.308 48.1155C231.977 47.3436 231.812 46.508 231.812 45.6122C231.812 44.7164 231.977 43.8807 232.308 43.1089C232.64 42.337 233.101 41.6571 233.694 41.0729C234.287 40.4887 234.978 40.0355 235.771 39.7097C236.563 39.3839 237.415 39.2246 238.336 39.2246C239.258 39.2246 240.11 39.3875 240.902 39.7097C241.694 40.0355 242.385 40.4887 242.979 41.0729C243.572 41.6571 244.033 42.337 244.365 43.1089C244.696 43.8807 244.86 44.7164 244.86 45.6122C244.86 46.508 244.696 47.3436 244.365 48.1155C244.033 48.8874 243.572 49.5672 242.979 50.1515C242.385 50.7357 241.694 51.1889 240.902 51.5147C240.11 51.8404 239.254 51.9998 238.336 51.9998ZM238.336 49.2025C238.825 49.2025 239.279 49.1105 239.698 48.9299C240.117 48.7458 240.48 48.4979 240.787 48.1793C241.094 47.8606 241.338 47.4817 241.509 47.0391C241.684 46.5965 241.771 46.1221 241.771 45.6157C241.771 45.1094 241.684 44.6172 241.509 44.1817C241.335 43.7462 241.094 43.3673 240.787 43.0487C240.48 42.73 240.117 42.4786 239.698 42.298C239.279 42.1139 238.825 42.0254 238.336 42.0254C237.848 42.0254 237.394 42.1174 236.975 42.298C236.556 42.4821 236.193 42.73 235.886 43.0487C235.579 43.3673 235.334 43.7462 235.163 44.1817C234.989 44.6172 234.902 45.0952 234.902 45.6157C234.902 46.1362 234.989 46.5965 235.163 47.0391C235.338 47.4817 235.579 47.8606 235.886 48.1793C236.193 48.4979 236.556 48.7493 236.975 48.9299C237.394 49.114 237.848 49.2025 238.336 49.2025Z" fill="white"/>
<path d="M246.453 51.8052V39.416H256.153V42.0539H249.455V44.3731H253.919V46.9225H249.455V51.8052H246.453Z" fill="white"/>
<path d="M254.425 51.8052L259.431 39.416H262.869L267.805 51.8052H264.559L263.442 48.8133H258.68L257.546 51.8052H254.422H254.425ZM259.588 46.3914H262.555L261.089 42.4257L259.588 46.3914Z" fill="white"/>
<path d="M268.117 51.8056L272.742 45.418L268.327 39.4199H271.904L274.522 43.1555L277.14 39.4199H280.579L276.233 45.418L280.945 51.8056H277.367L274.453 47.6629L271.555 51.8056H268.117Z" fill="white"/>
</svg>
