<svg width="32" height="32" viewBox="0 0 32 32" fill="none" xmlns="http://www.w3.org/2000/svg">
<g id="mdi:youtube">
<path id="Vector" d="M13.6 20L19.828 16.4L13.6 12.8V20ZM27.472 10.604C27.628 11.168 27.736 11.924 27.808 12.884C27.892 13.844 27.928 14.672 27.928 15.392L28 16.4C28 19.028 27.808 20.96 27.472 22.196C27.172 23.276 26.476 23.972 25.396 24.272C24.832 24.428 23.8 24.536 22.216 24.608C20.656 24.692 19.228 24.728 17.908 24.728L16 24.8C10.972 24.8 7.84 24.608 6.604 24.272C5.524 23.972 4.828 23.276 4.528 22.196C4.372 21.632 4.264 20.876 4.192 19.916C4.108 18.956 4.072 18.128 4.072 17.408L4 16.4C4 13.772 4.192 11.84 4.528 10.604C4.828 9.524 5.524 8.828 6.604 8.528C7.168 8.372 8.2 8.264 9.784 8.192C11.344 8.108 12.772 8.072 14.092 8.072L16 8C21.028 8 24.16 8.192 25.396 8.528C26.476 8.828 27.172 9.524 27.472 10.604Z" fill="white"/>
</g>
</svg>
