<svg width="32" height="32" viewBox="0 0 32 32" fill="none" xmlns="http://www.w3.org/2000/svg">
<g id="ri:linkedin-fill">
<path id="Vector" d="M9.31655 6.668C9.31619 7.37524 9.03579 8.05338 8.53701 8.55323C8.03824 9.05308 7.36196 9.33369 6.65694 9.33333C5.95193 9.33298 5.27592 9.05169 4.77765 8.55134C4.27938 8.051 3.99965 7.37258 4 6.66533C4.00035 5.95809 4.28076 5.27995 4.77953 4.78011C5.2783 4.28026 5.95458 3.99965 6.6596 4C7.36462 4.00035 8.04062 4.28164 8.5389 4.78199C9.03717 5.28234 9.3169 5.96076 9.31655 6.668ZM9.39629 11.308H4.07975V28.0013H9.39629V11.308ZM17.7964 11.308H12.5065V28.0013H17.7433V19.2413C17.7433 14.3613 24.0832 13.908 24.0832 19.2413V28.0013H29.3333V17.428C29.3333 9.20133 19.9496 9.508 17.7433 13.548L17.7964 11.308Z" fill="white"/>
</g>
</svg>
